# File created by Blade
# Date/Time:  Thu Jan 22 19:24:27 2015
#---------------------------------------------------------
:version 1.10
:name HOM
:units
  mass 1.0
  length 1.000000
  angle deg
:documentation
     Acclaim Skeleton File
:root
   axis xyz
   order TX TY TZ RX RY RZ
   position 0.000000 0.000000 0.000000
   orientation 0 0 0
:bonedata
   begin
      id 1
      name RightUpLeg_dum
      direction -1.000000 0.000000 0.000000
      length 4.478084
      axis 0.0 0.0 0.0 xyz
   end
   begin
      id 2
      name LeftUpLeg_dum
      direction 1.000000 0.000000 0.000000
      length 4.478084
      axis 0.0 0.0 0.0 xyz
   end
   begin
      id 3
      name Spine_dum
      direction 0.000000 1.000000 0.000000
      length 6.068208
      axis 0.0 0.0 0.0 xyz
   end
   begin
      id 4
      name RightUpLeg
      direction 0.000000 -1.000000 0.000000
      length 16.405774
      axis 0.0 0.0 0.0 xyz
      dof rx ry rz
   end
   begin
      id 5
      name RightLeg
      direction 0.000000 -1.000000 0.000000
      length 14.644143
      axis 0.0 0.0 0.0 xyz
      dof rx ry rz
   end
   begin
      id 6
      name RightFoot
      direction 0.000000 -0.258819 0.965926
      length 5.806150
      axis 15.0 0.0 0.0 xyz
      dof rx ry rz
   end
   begin
      id 7
      name RightToeBase
      direction 0.000000 0.000000 1.000000
      length 2.952750
      axis 0.0 0.0 0.0 xyz
      dof rx ry rz
   end
   begin
      id 8
      name LeftUpLeg
      direction 0.000000 -1.000000 0.000000
      length 16.405774
      axis 0.0 0.0 0.0 xyz
      dof rx ry rz
   end
   begin
      id 9
      name LeftLeg
      direction 0.000000 -1.000000 0.000000
      length 14.644143
      axis 0.0 0.0 0.0 xyz
      dof rx ry rz
   end
   begin
      id 10
      name LeftFoot
      direction 0.000000 -0.258819 0.965926
      length 5.806150
      axis 15.0 0.0 0.0 xyz
      dof rx ry rz
   end
   begin
      id 11
      name LeftToeBase
      direction 0.000000 0.000000 1.000000
      length 2.952750
      axis 0.0 0.0 0.0 xyz
      dof rx ry rz
   end
   begin
      id 12
      name Spine
      direction 0.000000 1.000000 0.000000
      length 0.000000
      axis 0.0 0.0 0.0 xyz
      dof rx ry rz
   end
   begin
      id 13
      name Spine_dum1
      direction 0.000000 1.000000 0.000000
      length 10.013923
      axis 0.0 0.0 0.0 xyz
   end
   begin
      id 14
      name Spine_dum2
      direction 0.000000 1.000000 0.000000
      length 10.013923
      axis 0.0 0.0 0.0 xyz
   end
   begin
      id 15
      name Spine_dum3
      direction 0.000000 1.000000 0.000000
      length 15.777476
      axis 0.0 0.0 0.0 xyz
   end
   begin
      id 16
      name RightShoulder
      direction -1.000000 0.000000 0.000000
      length 7.190220
      axis 0.0 0.0 90.0 xyz
      dof rx ry rz
   end
   begin
      id 17
      name RightArm
      direction -1.000000 0.000000 0.000000
      length 10.177469
      axis 0.0 0.0 90.0 xyz
      dof rx ry rz
   end
   begin
      id 18
      name RightForeArm
      direction -1.000000 0.000000 0.000000
      length 8.392114
      axis 0.0 0.0 90.0 xyz
      dof ry rz rx
   end
   begin
      id 19
      name RightHand
      direction -1.000000 0.000000 0.000000
      length 0.000000
      axis 0.0 0.0 90.0 xyz
      dof rx ry rz
   end
   begin
      id 20
      name RightHand_dum1
      direction -1.000000 0.000000 0.000000
      length 3.937000
      axis 0.0 0.0 90.0 xyz
   end
   begin
      id 21
      name RightHand_dum2
      direction 0.000000 0.000000 0.000000
      length 0.000000
      axis 0.0 0.0 90.0 xyz
   end
   begin
      id 22
      name RightHandThumb1
      direction 0.000000 0.000000 1.000000
      length 3.937000
      axis 0.0 0.0 90.0 xyz
      dof rx rz ry
   end
   begin
      id 23
      name LeftShoulder
      direction 1.000000 0.000000 0.000000
      length 7.190220
      axis 0.0 0.0 -90.0 xyz
      dof rx ry rz
   end
   begin
      id 24
      name LeftArm
      direction 1.000000 0.000000 0.000000
      length 10.177469
      axis 0.0 0.0 -90.0 xyz
      dof rx ry rz
   end
   begin
      id 25
      name LeftForeArm
      direction 1.000000 0.000000 0.000000
      length 8.392114
      axis 0.0 0.0 -90.0 xyz
      dof ry rz rx
   end
   begin
      id 26
      name LeftHand
      direction 1.000000 0.000000 0.000000
      length 0.000000
      axis 0.0 0.0 -90.0 xyz
      dof rx ry rz
   end
   begin
      id 27
      name LeftHand_dum1
      direction 1.000000 0.000000 0.000000
      length 3.937000
      axis 0.0 0.0 -90.0 xyz
   end
   begin
      id 28
      name LeftHand_dum2
      direction 0.000000 0.000000 0.000000
      length 0.000000
      axis 0.0 0.0 -90.0 xyz
   end
   begin
      id 29
      name LeftHandThumb1
      direction 0.000000 0.000000 1.000000
      length 3.937000
      axis 0.0 0.0 -90.0 xyz
      dof rx rz ry
   end
   begin
      id 30
      name Head
      direction 0.000000 1.000000 0.000000
      length 4.527550
      axis 0.0 0.0 0.0 xyz
      dof rx ry rz
   end
:hierarchy
   begin
      root RightUpLeg_dum LeftUpLeg_dum Spine_dum
      RightUpLeg_dum RightUpLeg
      LeftUpLeg_dum LeftUpLeg
      Spine_dum Spine
      RightUpLeg RightLeg
      RightLeg RightFoot
      RightFoot RightToeBase
      LeftUpLeg LeftLeg
      LeftLeg LeftFoot
      LeftFoot LeftToeBase
      Spine Spine_dum1 Spine_dum2 Spine_dum3
      Spine_dum1 RightShoulder
      Spine_dum2 LeftShoulder
      Spine_dum3 Head
      RightShoulder RightArm
      RightArm RightForeArm
      RightForeArm RightHand
      RightHand RightHand_dum1 RightHand_dum2
      RightHand_dum2 RightHandThumb1
      LeftShoulder LeftArm
      LeftArm LeftForeArm
      LeftForeArm LeftHand
      LeftHand LeftHand_dum1 LeftHand_dum2
      LeftHand_dum2 LeftHandThumb1
   end

# File created by Blade
# Date/Time:  Thu Jan 22 19:24:19 2015
# Frame Rate: 120.000 fps
#------------------------------------------------------
:FULLY-SPECIFIED
:DEGREES
697
root -8.868859 32.195417 -3.723319 10.127444 -19.271798 1.591527
RightUpLeg -0.385581 19.164660 12.701545
RightLeg -4.560397 -0.000000 0.000000
RightFoot -3.448525 -4.697259 -10.523014
RightToeBase 3.685554 -0.000000 -0.000000
LeftUpLeg -18.459300 5.072935 -11.819447
LeftLeg 25.957769 -0.000000 -0.000000
LeftFoot -23.988432 11.526003 -11.114430
LeftToeBase 6.498380 -0.000000 -0.000000
Spine -10.306398 -4.098817 -26.786637
RightShoulder -15.202981 -0.741068 -46.700127
RightArm 15.346233 43.193992 16.178758
RightForeArm 1.035929 0.000000 18.419055
RightHand 14.813197 -0.000000 -1.954470
RightHandThumb1 -24.326973 -0.000000 -32.862282
LeftShoulder -23.212257 4.783921 9.638862
LeftArm 16.195830 0.364891 -65.707817
LeftForeArm 18.853605 0.000000 4.863887
LeftHand -2.146056 -0.000000 -7.536361
LeftHandThumb1 -26.253704 0.000000 33.147579
Head -8.726407 9.644495 -13.562189
698
root -8.881004 32.190259 -3.707728 10.110830 -19.219810 1.586019
RightUpLeg -0.316159 19.122348 12.742408
RightLeg -4.602339 -0.000000 0.000000
RightFoot -3.439927 -4.686411 -10.598796
RightToeBase 3.620005 -0.000000 -0.000000
LeftUpLeg -18.451280 5.037514 -11.791138
LeftLeg 26.055004 -0.000000 -0.000000
LeftFoot -24.060124 11.504291 -11.139432
LeftToeBase 6.494438 -0.000000 -0.000000
Spine -10.303588 -4.135910 -26.898776
RightShoulder -15.226538 -0.498150 -47.008053
RightArm 15.496645 43.451873 15.946133
RightForeArm 1.318174 -0.000000 18.537350
RightHand 14.888000 -0.000000 -2.055265
RightHandThumb1 -24.326973 -0.000000 -32.862282
LeftShoulder -23.170488 4.687796 9.412885
LeftArm 16.047053 0.798764 -65.807584
LeftForeArm 18.957839 0.000000 5.044593
LeftHand -2.216394 -0.000000 -7.364461
LeftHandThumb1 -26.253704 0.000000 33.147579
Head -8.771156 9.588546 -13.872330
699
root -8.893414 32.186556 -3.693898 10.099464 -19.173997 1.572191
RightUpLeg -0.258446 19.117130 12.789190
RightLeg -4.632184 -0.000000 0.000000
RightFoot -3.410234 -4.708442 -10.648031
RightToeBase 3.604815 -0.000000 -0.000000
LeftUpLeg -18.448888 4.997507 -11.758724
LeftLeg 26.152277 -0.000000 -0.000000
LeftFoot -24.122815 11.506111 -11.172623
LeftToeBase 6.476874 -0.000000 -0.000000
Spine -10.314347 -4.170267 -27.008145
RightShoulder -15.216736 -0.111555 -47.377915
RightArm 15.540204 43.493267 15.698718
RightForeArm 1.677268 -0.000000 18.661396
RightHand 15.003430 -0.000000 -2.303660
RightHandThumb1 -24.326973 -0.000000 -32.862282
LeftShoulder -23.106896 4.669491 9.176417
LeftArm 15.944310 1.207612 -65.901248
LeftForeArm 19.069515 -0.000000 5.249019
LeftHand -2.314937 -0.000000 -7.319605
LeftHandThumb1 -26.253704 0.000000 33.147579
Head -8.802069 9.509319 -14.156573
700
root -8.906165 32.182720 -3.682473 10.112232 -19.129250 1.555002
RightUpLeg -0.240004 19.114848 12.831318
RightLeg -4.631911 -0.000000 0.000000
RightFoot -3.404986 -4.734429 -10.698588
RightToeBase 3.619216 -0.000000 -0.000000
LeftUpLeg -18.468243 4.972612 -11.723569
LeftLeg 26.240239 -0.000000 -0.000000
LeftFoot -24.178975 11.492362 -11.166043
LeftToeBase 6.457678 -0.000000 -0.000000
Spine -10.342536 -4.219283 -27.119926
RightShoulder -15.202390 -0.053542 -47.588378
RightArm 15.737995 43.950927 15.499454
RightForeArm 1.941690 0.000000 18.749652
RightHand 15.066733 -0.000000 -2.221907
RightHandThumb1 -24.326973 -0.000000 -32.862282
LeftShoulder -23.044912 4.586446 9.006722
LeftArm 15.756142 1.613871 -66.042655
LeftForeArm 19.135676 -0.000000 5.456640
LeftHand -2.437896 -0.000000 -7.167096
LeftHandThumb1 -26.253704 0.000000 33.147579
Head -8.827530 9.444925 -14.403338
701
root -8.918715 32.179173 -3.669735 10.101762 -19.089540 1.538904
RightUpLeg -0.192223 19.136520 12.876697
RightLeg -4.641542 -0.000000 0.000000
RightFoot -3.391406 -4.780837 -10.741415
RightToeBase 3.589103 -0.000000 -0.000000
LeftUpLeg -18.456339 4.945127 -11.686679
LeftLeg 26.316647 -0.000000 -0.000000
LeftFoot -24.224801 11.504057 -11.127210
LeftToeBase 6.366757 -0.000000 -0.000000
Spine -10.353359 -4.249866 -27.228706
RightShoulder -15.197631 0.268527 -47.934885
RightArm 15.822204 44.063014 15.311558
RightForeArm 2.316294 0.000000 18.878512
RightHand 15.068573 -0.000000 -2.351424
RightHandThumb1 -24.326973 -0.000000 -32.862282
LeftShoulder -22.994865 4.564648 8.807060
LeftArm 15.671090 2.120039 -66.126059
LeftForeArm 19.187067 -0.000000 5.595869
LeftHand -2.381971 -0.000000 -7.255039
LeftHandThumb1 -26.253704 0.000000 33.147579
Head -8.867550 9.365066 -14.666176
702
root -8.931948 32.174393 -3.659503 10.101611 -19.036267 1.518702
RightUpLeg -0.167859 19.122724 12.929658
RightLeg -4.632323 -0.000000 0.000000
RightFoot -3.387122 -4.806528 -10.766270
RightToeBase 3.579523 -0.000000 -0.000000
LeftUpLeg -18.460106 4.889478 -11.643336
LeftLeg 26.399355 -0.000000 -0.000000
LeftFoot -24.297831 11.512952 -11.145383
LeftToeBase 6.367253 -0.000000 -0.000000
Spine -10.338243 -4.311488 -27.296334
RightShoulder -15.237245 0.446101 -48.259194
RightArm 16.057891 44.410142 15.220268
RightForeArm 2.631034 -0.000000 18.959450
RightHand 15.189066 -0.000000 -2.213375
RightHandThumb1 -24.326973 -0.000000 -32.862282
LeftShoulder -22.985727 4.546671 8.588666
LeftArm 15.624601 2.605459 -66.218526
LeftForeArm 19.139090 -0.000000 5.697246
LeftHand -2.328764 -0.000000 -7.114518
LeftHandThumb1 -26.253704 0.000000 33.147579
Head -9.011467 9.329808 -14.979996
703
root -8.947772 32.171639 -3.650504 10.093146 -18.985042 1.507804
RightUpLeg -0.154250 19.128037 12.978270
RightLeg -4.591959 -0.000000 0.000000
RightFoot -3.389972 -4.855860 -10.810523
RightToeBase 3.563346 -0.000000 -0.000000
LeftUpLeg -18.452612 4.817513 -11.599053
LeftLeg 26.468757 -0.000000 -0.000000
LeftFoot -24.354473 11.531164 -11.171384
LeftToeBase 6.395967 -0.000000 -0.000000
Spine -10.332822 -4.358943 -27.428449
RightShoulder -15.265975 0.706178 -48.530082
RightArm 16.246655 44.609270 15.059185
RightForeArm 3.102958 0.000000 19.033838
RightHand 15.146857 -0.000000 -2.250362
RightHandThumb1 -24.326973 -0.000000 -32.862282
LeftShoulder -22.916203 4.505024 8.484441
LeftArm 15.481857 3.017611 -66.391146
LeftForeArm 19.217589 -0.000000 5.842766
LeftHand -2.311012 0.000000 -7.123434
LeftHandThumb1 -26.253704 0.000000 33.147579
Head -9.063685 9.250791 -15.188460
704
root -8.961633 32.172039 -3.631931 10.034373 -18.927255 1.516929
RightUpLeg -0.070884 19.092894 13.016988
RightLeg -4.575787 -0.000000 0.000000
RightFoot -3.378103 -4.868561 -10.858204
RightToeBase 3.523025 -0.000000 -0.000000
LeftUpLeg -18.355713 4.734637 -11.578384
LeftLeg 26.470256 -0.000000 -0.000000
LeftFoot -24.373458 11.599013 -11.182049
LeftToeBase 6.390158 -0.000000 -0.000000
Spine -10.309716 -4.383519 -27.625124
RightShoulder -15.238823 0.726860 -48.636626
RightArm 16.439347 45.107103 14.887657
RightForeArm 3.302756 -0.000000 19.137738
RightHand 15.084711 -0.000000 -2.200357
RightHandThumb1 -24.326973 -0.000000 -32.862282
LeftShoulder -22.846864 4.525224 8.417481
LeftArm 15.388396 3.455738 -66.593938
LeftForeArm 19.350800 -0.000000 5.987177
LeftHand -2.300413 0.000000 -7.028848
LeftHandThumb1 -26.253704 0.000000 33.147579
Head -9.028888 9.039277 -15.301673
705
root -8.975784 32.170355 -3.618250 10.005626 -18.856331 1.508363
RightUpLeg -0.034282 19.056564 13.068966
RightLeg -4.532358 -0.000000 0.000000
RightFoot -3.387081 -4.896617 -10.859234
RightToeBase 3.482623 -0.000000 -0.000000
LeftUpLeg -18.314616 4.664467 -11.534543
LeftLeg 26.520273 -0.000000 -0.000000
LeftFoot -24.413252 11.594377 -11.214037
LeftToeBase 6.409678 -0.000000 -0.000000
Spine -10.264986 -4.425366 -27.753860
RightShoulder -15.278153 1.095710 -48.961579
RightArm 16.562469 45.208838 14.770147
RightForeArm 3.510119 -0.000000 19.241673
RightHand 15.052500 -0.000000 -2.344990
RightHandThumb1 -24.326973 -0.000000 -32.862282
LeftShoulder -22.798435 4.454911 8.316857
LeftArm 15.206384 4.359191 -66.629573
LeftForeArm 19.070074 -0.000000 6.238416
LeftHand -2.336875 -0.000000 -6.975399
LeftHandThumb1 -26.253704 0.000000 33.147579
Head -9.145534 8.970174 -15.533591
706
root -8.989768 32.168337 -3.600082 9.937537 -18.813216 1.506166
RightUpLeg 0.058721 18.999058 13.121892
RightLeg -4.506104 -0.000000 0.000000
RightFoot -3.396393 -4.872920 -10.902212
RightToeBase 3.398341 -0.000000 -0.000000
LeftUpLeg -18.231005 4.614441 -11.500107
LeftLeg 26.568897 -0.000000 -0.000000
LeftFoot -24.456211 11.620619 -11.225017
LeftToeBase 6.389079 -0.000000 -0.000000
Spine -10.202001 -4.431645 -27.893037
RightShoulder -15.328148 1.386117 -49.213265
RightArm 16.767234 45.420707 14.656449
RightForeArm 3.612392 0.000000 19.326434
RightHand 14.981024 -0.000000 -2.414756
RightHandThumb1 -24.326973 -0.000000 -32.862282
LeftShoulder -22.759141 4.477133 8.193282
LeftArm 15.146040 5.048855 -66.714543
LeftForeArm 18.922990 -0.000000 6.384288
LeftHand -2.272943 -0.000000 -6.871601
LeftHandThumb1 -26.253704 0.000000 33.147579
Head -9.254053 8.890963 -15.762553
707
root -9.001637 32.165971 -3.577671 9.860491 -18.758211 1.503846
RightUpLeg 0.175373 18.943402 13.175209
RightLeg -4.498280 -0.000000 0.000000
RightFoot -3.420570 -4.870417 -10.902279
RightToeBase 3.446397 -0.000000 -0.000000
LeftUpLeg -18.159813 4.562537 -11.464282
LeftLeg 26.682387 -0.000000 -0.000000
LeftFoot -24.501849 11.591780 -11.281094
LeftToeBase 6.443511 -0.000000 -0.000000
Spine -10.146622 -4.407907 -28.010855
RightShoulder -15.380641 1.593556 -49.505346
RightArm 17.010557 45.645882 14.611984
RightForeArm 3.606858 -0.000000 19.411462
RightHand 15.020704 -0.000000 -1.724878
RightHandThumb1 -24.326973 -0.000000 -32.862282
LeftShoulder -22.678699 4.477935 8.049058
LeftArm 15.078301 5.517443 -66.837897
LeftForeArm 19.049588 -0.000000 6.493920
LeftHand -2.223967 -0.000000 -6.997979
LeftHandThumb1 -26.253704 0.000000 33.147579
Head -9.313598 8.804999 -16.054657
